<svg width="1057" height="980" viewBox="0 0 1057 980" fill="none" xmlns="http://www.w3.org/2000/svg">
<path d="M0 86.0951V199.731H426.938H802.875C819.444 199.731 832.875 213.163 832.875 229.731V571.121V978.268H955.075H1056.28V562.633C1056.28 410.315 1057.94 250.22 1055.36 175.193C1054.8 158.803 1055.36 106.656 1054.64 84.1306C1053.91 61.6046 1051 47.7056 1034 28.0554C1017 8.40509 983.5 6.48755 957.605 1.78107C937.545 -1.86481 815.925 1.21552 465.52 1.21552H0V86.0951Z" fill="#026398"/>
<path d="M0 442.102V544.743L84.1225 544.547C129.663 546.972 209.99 543.9 261.223 546.325L354.833 545.776L302.335 579.122C254.898 608.83 180.263 674.308 149.903 711.292C130.928 734.937 94.875 803.447 87.9175 830.123C69.575 899.239 63.8825 930.16 63.25 953.198V979.269H167.613H271.343L275.138 956.23C283.36 907.727 286.523 896.208 299.173 861.043C323.208 792.533 366.85 741.606 438.323 697.953L472.478 676.733L473.008 834.19C473.008 896.833 473.008 877.348 473.008 943.802V979.269H596.448H703.973V916.004C703 877.183 706.398 763.561 704.5 665.343C698.807 406.461 678.673 385.718 592.02 364.498C572.622 359.765 549.095 355.075 491.5 353.815C442 353.815 378.668 354.797 275.138 354.797H0V442.102Z" fill="#026398"/>
</svg>
