<svg xmlns="http://www.w3.org/2000/svg" width="852" height="342" viewBox="0 0 852 342">
<g>
<path d="M 112.24 298.81 C109.97,302.75 109.66,302.62 89.00,289.19 C84.32,286.16 78.70,282.54 76.50,281.16 C62.48,272.37 55.00,266.96 55.00,265.60 C55.00,265.07 57.50,260.55 60.56,255.57 C67.29,244.60 66.61,245.75 73.59,233.61 C76.72,228.17 80.14,222.86 81.18,221.82 C83.74,219.26 85.33,214.93 84.14,213.74 C83.61,213.21 70.47,212.74 53.87,212.65 L 24.53 212.50 L 23.70 207.00 C22.66,200.12 23.22,146.45 24.34,145.33 C24.79,144.87 39.18,144.27 56.32,144.00 C83.16,143.57 87.51,143.29 87.77,141.98 C87.93,141.14 80.81,128.37 71.95,113.60 C63.09,98.84 55.58,86.08 55.27,85.25 C54.47,83.19 56.52,81.67 86.50,62.18 C92.00,58.60 98.80,54.17 101.60,52.34 C107.50,48.48 110.47,48.14 112.24,51.10 C113.76,53.63 123.20,67.82 135.86,86.61 C145.78,101.35 148.69,105.01 150.42,104.98 C151.02,104.97 155.96,97.66 161.41,88.73 C166.85,79.81 173.37,69.35 175.89,65.50 C178.41,61.65 180.95,57.60 181.54,56.50 C184.31,51.37 186.38,49.00 188.08,49.00 C189.10,49.00 194.33,51.63 199.71,54.84 C205.10,58.05 215.80,64.40 223.50,68.95 C231.20,73.50 239.42,78.78 241.77,80.69 C246.51,84.55 246.84,86.60 243.48,91.59 C240.98,95.31 240.02,96.85 237.22,101.61 C235.96,103.75 233.60,107.53 231.97,110.00 C230.34,112.47 228.44,115.62 227.75,117.00 C227.05,118.38 225.17,121.53 223.56,124.00 C215.32,136.67 214.00,139.00 214.00,140.92 C214.00,142.06 214.11,143.10 214.25,143.21 C214.39,143.33 228.45,143.67 245.50,143.96 L 276.50 144.50 L 276.76 177.41 C277.00,206.85 276.85,210.50 275.37,212.14 C273.86,213.81 271.39,213.99 246.22,214.23 C221.22,214.48 218.62,214.66 217.61,216.26 C216.70,217.71 217.06,218.54 219.65,220.97 C221.38,222.59 225.18,228.10 228.09,233.21 C230.99,238.32 235.43,245.65 237.94,249.50 C240.45,253.35 243.06,257.62 243.75,259.00 C244.43,260.38 245.51,262.23 246.15,263.11 C248.11,265.83 246.52,267.55 237.10,272.94 C232.11,275.80 227.78,278.55 227.46,279.06 C227.14,279.58 225.90,280.01 224.69,280.02 C223.49,280.03 221.38,280.92 220.00,282.00 C218.62,283.08 217.19,283.97 216.80,283.98 C216.42,283.99 214.17,285.28 211.80,286.85 C209.44,288.41 205.48,290.77 203.02,292.10 C200.55,293.42 197.00,295.51 195.13,296.75 C193.25,297.99 190.26,299.00 188.47,299.00 C185.43,299.00 184.79,298.32 178.74,288.75 C154.69,250.68 151.84,245.76 152.45,243.32 C153.00,241.15 156.25,236.63 168.50,221.00 C179.67,206.74 185.99,197.30 185.93,195.00 C185.89,193.63 185.01,191.15 183.99,189.50 C181.97,186.26 176.27,176.13 171.04,166.50 C169.25,163.20 167.45,160.05 167.04,159.50 C166.63,158.95 163.93,154.00 161.04,148.50 C153.59,134.31 150.71,129.92 149.04,130.24 C147.38,130.55 142.85,136.63 139.92,142.50 C138.81,144.70 136.82,148.30 135.48,150.50 C134.14,152.70 131.89,156.75 130.48,159.50 C129.06,162.25 126.84,166.30 125.53,168.50 C124.22,170.70 122.16,174.52 120.96,177.00 C119.76,179.48 118.21,182.18 117.52,183.00 C115.22,185.73 111.00,194.04 111.02,195.79 C111.03,196.73 114.30,201.55 118.29,206.50 C122.29,211.45 130.44,221.55 136.40,228.94 C143.00,237.12 147.25,243.26 147.25,244.63 C147.25,245.87 146.27,248.15 145.06,249.69 C143.86,251.24 139.16,258.12 134.63,265.00 C130.10,271.88 123.49,281.80 119.94,287.06 C116.40,292.32 112.93,297.61 112.24,298.81 ZM 364.23 161.75 C363.00,163.65 361.88,164.00 357.08,164.00 C349.08,164.00 347.33,161.73 350.57,155.52 C351.42,153.88 352.94,149.60 353.94,146.02 C354.94,142.43 356.94,136.61 358.38,133.08 C359.82,129.55 361.00,126.11 361.00,125.45 C361.00,124.79 361.67,123.69 362.50,123.00 C363.32,122.32 364.50,119.90 365.12,117.63 C365.74,115.36 367.32,111.13 368.62,108.22 C369.93,105.32 371.00,102.24 371.00,101.38 C371.00,100.53 372.41,96.83 374.13,93.16 C375.86,89.50 377.56,85.15 377.92,83.50 C378.65,80.21 380.84,79.33 388.93,79.12 C395.27,78.95 399.74,80.80 400.51,83.93 C400.86,85.34 403.45,92.33 406.27,99.46 C409.09,106.59 411.30,113.69 411.18,115.23 C410.96,118.15 413.43,124.00 414.90,124.00 C415.36,124.00 416.33,126.14 417.06,128.75 C417.78,131.36 419.19,134.85 420.18,136.50 C421.18,138.15 421.99,140.10 422.00,140.83 C422.00,141.56 423.18,145.11 424.63,148.72 C426.07,152.33 427.28,157.13 427.31,159.39 L 427.38 163.50 L 421.06 163.80 C413.11,164.18 410.65,162.25 408.86,154.25 C406.72,144.72 406.83,144.77 388.09,144.55 C387.10,144.54 386.17,144.53 385.28,144.52 C376.43,144.40 372.88,144.35 370.91,146.09 C369.40,147.42 368.81,149.80 367.46,154.00 C366.49,157.02 365.04,160.51 364.23,161.75 ZM 717.00 164.02 C715.22,165.15 706.01,165.29 704.33,164.22 C703.50,163.70 703.05,157.16 702.83,142.49 C702.47,119.80 701.66,115.81 697.24,115.18 C696.01,115.00 695.00,114.44 695.00,113.93 C695.00,112.48 689.22,112.84 686.03,114.48 C684.45,115.30 682.14,117.40 680.89,119.15 C678.70,122.23 678.63,122.97 678.89,141.48 L 678.90 142.31 C679.10,155.99 679.16,160.64 676.95,162.37 C675.77,163.30 673.93,163.39 671.12,163.59 L 670.75 163.61 C668.40,163.78 666.74,163.90 665.58,163.19 C662.84,161.52 662.91,155.22 663.16,133.97 L 663.18 132.55 C663.43,110.96 663.35,105.04 665.88,103.55 C666.84,102.98 668.16,103.05 670.02,103.15 C670.29,103.16 670.58,103.18 670.87,103.19 C675.61,103.40 678.00,105.04 678.00,108.07 C678.00,109.13 678.25,110.00 678.57,110.00 C679.81,110.00 683.65,107.62 686.15,105.28 C688.24,103.34 690.51,102.61 696.83,101.84 C705.79,100.76 708.76,101.63 714.50,107.05 L 717.50 109.88 L 723.35 105.94 C728.90,102.20 729.59,102.00 736.90,102.00 C743.52,102.00 745.17,102.37 748.66,104.64 C753.74,107.93 755.52,110.90 756.91,118.43 C758.48,126.98 758.36,160.46 756.75,161.78 C756.06,162.35 753.34,163.13 750.71,163.53 C746.85,164.10 745.54,163.90 743.96,162.46 C742.14,160.81 742.00,159.28 742.00,140.38 L 742.00 120.07 L 739.01 116.66 C735.14,112.26 731.32,111.50 725.52,113.99 C723.03,115.06 720.94,116.28 720.87,116.71 C720.80,117.15 720.55,118.62 720.31,120.00 C720.07,121.38 719.56,131.63 719.19,142.79 C718.63,159.20 718.21,163.26 717.00,164.02 ZM 803.50 163.35 C794.16,166.23 785.58,165.66 778.90,161.70 C771.46,157.31 770.50,155.75 770.50,148.10 C770.50,135.81 775.40,131.92 795.11,128.55 C806.04,126.69 808.66,125.90 810.17,124.04 C812.54,121.11 812.44,118.11 809.87,115.01 C808.08,112.87 806.80,112.48 800.62,112.17 L 793.45 111.80 L 789.47 115.90 C785.82,119.67 785.08,120.00 780.25,120.00 C777.36,120.00 774.95,119.66 774.89,119.25 C773.93,112.66 774.27,111.45 778.06,107.95 C783.35,103.07 790.48,101.00 802.07,101.00 C810.30,101.00 812.14,101.34 816.82,103.71 C825.49,108.09 826.69,110.18 827.47,122.21 C827.83,127.87 827.99,139.48 827.81,148.00 L 827.50 163.50 L 821.00 163.50 C815.22,163.50 814.39,163.25 813.51,161.25 C812.31,158.52 811.57,158.46 808.15,160.87 C806.69,161.90 804.60,163.02 803.50,163.35 ZM 652.79 272.10 C648.19,274.46 633.09,274.63 628.81,272.37 C621.58,268.55 614.99,256.85 615.01,247.87 C615.05,232.69 624.06,221.67 637.57,220.28 C649.47,219.05 658.25,223.70 663.26,233.87 C666.18,239.81 666.49,241.29 666.39,248.84 C666.33,253.44 665.83,257.50 665.28,257.86 C664.73,258.21 663.49,260.08 662.52,262.00 C660.11,266.80 657.18,269.85 652.79,272.10 ZM 543.80 164.14 C542.25,165.13 529.62,165.29 528.67,164.33 C528.30,163.97 528.00,154.63 527.99,143.58 C527.99,119.64 527.40,116.76 521.99,114.00 C517.14,111.52 516.29,111.52 510.54,113.98 C503.44,117.03 502.70,119.55 502.04,143.00 L 501.50 162.50 L 495.67 162.80 C492.22,162.98 489.25,162.62 488.42,161.93 C486.51,160.35 486.30,106.10 488.20,104.20 C488.86,103.54 491.55,103.00 494.17,103.00 C498.56,103.00 499.08,103.27 500.60,106.25 C501.51,108.04 502.40,109.66 502.57,109.86 C502.75,110.06 504.83,108.66 507.20,106.74 C513.61,101.56 515.58,100.81 522.97,100.77 C532.59,100.71 538.94,104.21 542.18,111.37 C544.36,116.19 544.52,117.91 544.80,139.91 C545.04,158.31 544.83,163.49 543.80,164.14 ZM 447.50 273.00 C446.67,274.34 431.27,274.05 427.50,272.62 C423.36,271.05 417.61,265.33 415.10,260.29 C413.45,256.98 413.02,254.31 413.08,247.79 C413.17,238.09 414.25,234.57 418.99,228.65 C421.74,225.22 423.65,223.95 428.04,222.65 C434.50,220.73 442.26,220.52 447.10,222.13 C451.44,223.58 457.58,229.36 460.23,234.50 C462.65,239.18 463.77,250.62 462.21,254.72 C461.64,256.25 460.89,258.76 460.55,260.31 C459.78,263.83 452.36,272.00 449.93,272.00 C448.93,272.00 447.84,272.45 447.50,273.00 ZM 573.39 162.42 C572.93,163.63 571.30,164.00 566.41,164.00 C560.59,164.00 559.99,163.80 559.46,161.69 C559.14,160.42 559.02,147.13 559.19,132.15 C559.43,110.65 559.38,105.01 561.83,103.54 C562.70,103.01 563.89,103.01 565.52,103.02 C565.73,103.02 565.95,103.02 566.18,103.02 C569.84,103.00 573.00,105.02 573.00,107.37 C573.00,108.05 573.51,109.11 574.12,109.72 C575.29,110.89 575.77,110.65 580.09,106.73 C585.67,101.67 602.10,100.47 607.84,104.71 C611.77,107.62 614.73,114.33 615.51,122.12 C615.89,125.90 616.61,129.00 617.10,129.00 C617.60,129.00 618.00,135.75 618.00,144.00 C618.00,152.25 617.66,159.00 617.24,159.00 C616.82,159.00 616.03,160.01 615.49,161.25 C614.60,163.26 613.92,163.46 609.00,163.15 C605.97,162.95 602.94,162.33 602.25,161.77 C601.33,161.02 601.00,155.78 601.00,141.94 C601.00,130.47 600.61,122.88 600.00,122.50 C599.45,122.16 599.00,121.02 599.00,119.96 C599.00,115.64 589.05,112.25 583.35,114.63 C579.70,116.15 576.07,122.17 576.02,126.75 C576.01,127.99 575.55,129.00 575.00,129.00 C574.38,129.00 574.00,134.97 574.00,144.92 C574.00,153.67 573.73,161.55 573.39,162.42 ZM 389.31 272.47 C385.14,274.11 369.36,275.38 365.50,274.38 C364.40,274.10 362.08,273.22 360.35,272.43 C358.62,271.64 356.80,271.00 356.32,271.00 C354.68,271.00 349.13,265.24 347.06,261.38 C344.59,256.76 344.47,254.68 346.58,252.93 C348.51,251.33 351.31,252.75 351.87,255.61 C352.43,258.47 357.94,265.00 359.83,265.03 C360.75,265.05 362.37,265.72 363.44,266.53 C366.58,268.91 382.59,268.55 386.76,266.01 C390.65,263.63 393.99,258.50 394.00,254.90 C394.00,250.63 390.02,245.85 385.00,244.08 C382.52,243.21 380.24,242.15 379.93,241.73 C379.61,241.30 376.91,240.54 373.93,240.03 C362.26,238.06 354.45,234.83 350.83,230.50 C346.24,224.99 346.07,215.00 350.47,209.04 C353.81,204.52 365.07,199.00 370.94,199.01 C381.77,199.04 391.54,203.70 395.45,210.70 C398.52,216.18 398.67,218.65 396.01,219.50 C393.36,220.34 392.24,219.52 390.56,215.50 C388.25,209.96 382.85,207.22 373.95,207.06 C361.37,206.85 356.00,210.53 356.00,219.38 C356.00,223.09 356.50,224.24 358.99,226.34 C362.28,229.11 362.42,229.16 372.50,231.50 C384.60,234.31 394.81,238.19 397.81,241.12 C402.38,245.59 404.73,257.17 401.75,260.57 C401.06,261.35 398.92,263.98 397.00,266.40 C394.86,269.10 391.87,271.46 389.31,272.47 ZM 451.40 161.50 C449.95,164.13 440.02,164.93 438.07,162.58 C437.11,161.43 436.89,154.45 437.16,133.00 C437.43,110.93 437.34,105.09 439.87,103.56 C440.78,103.00 442.03,103.01 443.76,103.01 C444.04,103.02 444.33,103.02 444.63,103.02 C449.54,103.00 451.17,104.59 451.94,110.17 L 452.50 114.16 L 456.50 110.08 C462.93,103.52 469.58,100.75 474.42,102.61 C476.35,103.35 476.64,111.96 474.80,113.80 C474.14,114.46 471.87,115.00 469.75,115.00 C464.99,115.00 461.53,116.76 457.00,121.47 L 453.50 125.12 L 453.85 141.69 C454.04,150.81 453.81,158.54 453.35,158.88 C452.88,159.22 452.00,160.40 451.40,161.50 ZM 433.50 267.80 C437.74,269.27 439.23,269.22 443.63,267.40 C448.82,265.25 450.77,263.38 453.61,257.78 C457.93,249.25 456.01,235.81 449.77,230.95 C439.44,222.89 430.37,224.86 424.12,236.52 C421.54,241.33 421.13,254.43 423.41,258.80 C425.33,262.48 429.88,266.53 433.50,267.80 ZM 632.39 266.10 C634.47,267.36 637.37,267.99 641.14,268.00 C646.01,268.00 647.35,267.55 650.86,264.75 C659.51,257.86 660.41,242.37 652.73,232.81 C649.06,228.24 644.59,226.81 637.52,227.95 C631.00,229.00 625.45,234.82 624.42,241.68 C622.70,253.18 625.55,261.93 632.39,266.10 ZM 529.62 271.77 C527.15,273.67 525.49,274.00 518.25,274.00 L 509.77 274.00 L 506.02 269.89 C501.56,265.02 501.00,261.63 501.00,239.44 C501.00,223.98 501.33,222.00 503.91,222.00 C507.62,222.00 508.00,223.90 508.00,242.20 C508.00,253.40 508.37,260.00 509.00,260.00 C509.55,260.00 510.00,260.70 510.00,261.55 C510.00,262.40 511.10,264.20 512.45,265.55 C515.84,268.93 524.17,269.02 529.10,265.73 C535.12,261.71 536.00,258.54 536.00,240.68 C536.00,231.70 536.45,224.03 537.04,222.93 C538.55,220.09 543.58,220.31 544.37,223.25 C544.70,224.49 544.98,235.85 544.99,248.51 C545.00,270.29 544.90,271.58 543.04,272.74 C540.60,274.26 538.00,273.37 538.00,271.02 C538.00,268.29 535.52,266.63 533.86,268.24 C533.11,268.96 531.20,270.55 529.62,271.77 ZM 721.43 273.43 C719.61,275.25 719.12,275.30 716.75,273.92 C715.19,273.01 715.00,270.99 715.00,254.92 C715.00,235.94 714.04,230.69 710.30,229.31 C709.31,228.94 708.24,228.26 707.92,227.80 C707.61,227.33 705.07,226.68 702.29,226.35 C697.42,225.77 697.06,225.90 692.78,229.85 C689.16,233.19 688.30,234.64 688.19,237.65 C688.11,239.69 687.60,241.63 687.05,241.97 C686.48,242.32 685.94,249.16 685.78,258.03 C685.52,272.39 685.36,273.50 683.57,273.85 C679.46,274.63 679.00,271.93 679.00,247.28 C679.00,226.38 679.17,223.87 680.67,223.30 C681.81,222.86 683.19,223.66 684.99,225.82 L 687.63 228.98 L 690.99 225.51 C695.33,221.04 699.78,219.61 707.30,220.29 C714.52,220.95 717.71,223.03 720.71,229.06 C722.75,233.16 722.92,234.95 722.96,252.68 C722.99,268.82 722.75,272.11 721.43,273.43 ZM 769.32 272.51 C764.76,274.42 748.76,274.39 744.38,272.47 C737.59,269.49 733.55,260.92 738.59,260.20 C740.02,260.00 741.55,261.03 743.39,263.45 C744.88,265.40 746.95,267.00 747.99,267.00 C749.03,267.00 750.12,267.39 750.42,267.87 C751.36,269.40 758.45,269.99 762.54,268.88 C770.16,266.82 773.32,260.86 769.25,256.24 C767.21,253.93 760.07,251.00 756.48,251.00 C755.12,251.00 754.00,250.58 754.00,250.07 C754.00,249.56 751.63,248.45 748.74,247.61 C741.55,245.52 736.95,240.73 736.26,234.60 C735.78,230.32 736.00,229.77 739.64,226.12 C748.46,217.31 764.59,218.07 773.04,227.70 C776.31,231.42 776.42,232.73 773.61,234.43 C772.17,235.30 771.36,234.93 769.17,232.39 C765.36,227.96 762.55,226.78 755.41,226.63 C749.74,226.51 748.84,226.78 746.07,229.44 C744.38,231.05 743.00,233.09 743.00,233.97 C743.00,236.12 750.79,242.00 753.62,242.00 C754.87,242.00 756.13,242.40 756.44,242.90 C756.74,243.39 759.36,244.34 762.25,245.01 C769.60,246.71 775.47,250.30 777.02,254.05 C780.02,261.30 776.62,269.46 769.32,272.51 ZM 645.77 162.64 C644.05,163.71 635.38,163.79 633.53,162.76 C632.21,162.02 632.01,158.21 632.10,135.20 C632.15,120.52 632.51,107.38 632.89,106.00 C633.46,103.94 634.28,103.45 637.60,103.20 C639.81,103.04 642.83,103.36 644.31,103.93 L 647.00 104.95 L 647.00 133.42 C647.00,154.84 646.70,162.07 645.77,162.64 ZM 578.89 272.63 C577.33,274.51 573.19,274.35 569.06,272.25 C563.93,269.63 563.16,266.25 563.08,245.69 C563.03,234.09 562.65,228.10 562.00,228.50 C561.45,228.84 561.00,228.67 561.00,228.13 C561.00,227.58 559.76,226.99 558.25,226.82 C556.27,226.59 555.50,225.94 555.50,224.50 C555.50,222.98 556.33,222.38 559.00,222.00 L 562.50 221.50 L 563.06 214.96 C563.73,207.19 564.33,206.00 567.56,206.00 C569.85,206.00 570.00,206.34 570.00,211.50 C570.00,214.52 570.45,217.00 571.00,217.00 C571.55,217.00 572.00,218.12 572.00,219.50 C572.00,221.68 572.44,222.00 575.39,222.00 C577.57,222.00 579.00,222.57 579.40,223.59 C580.30,225.93 579.24,227.00 576.02,227.00 C573.64,227.00 572.96,227.59 572.02,230.43 C570.64,234.61 570.85,264.94 572.27,266.75 C572.80,267.44 574.49,268.00 576.02,268.00 C579.13,268.00 580.67,270.48 578.89,272.63 ZM 601.43 273.43 C599.62,275.24 598.22,275.36 595.75,273.92 C594.16,272.99 594.00,270.69 594.00,248.53 C594.00,235.13 594.27,223.45 594.61,222.58 C595.49,220.29 600.68,220.54 601.96,222.93 C602.59,224.11 603.00,234.08 603.00,248.36 C603.00,268.39 602.77,272.09 601.43,273.43 ZM 483.76 238.62 C483.50,272.46 483.50,272.50 481.34,272.81 C480.16,272.98 478.90,272.65 478.56,272.09 C477.68,270.67 477.13,232.41 477.75,215.75 C478.20,203.53 478.45,202.00 480.01,202.00 C483.87,202.00 484.04,203.63 483.76,238.62 ZM 794.02 154.89 C805.03,157.18 814.09,148.97 812.49,138.15 C811.87,133.94 811.75,133.81 808.67,134.25 C804.67,134.82 795.66,137.29 795.00,138.00 C794.72,138.30 793.25,139.09 791.73,139.76 C788.99,140.96 787.00,144.41 787.00,147.95 C787.00,150.88 790.27,154.10 794.02,154.89 ZM 377.60 131.16 C377.88,131.62 382.78,132.00 388.48,132.00 C399.67,132.00 400.70,131.49 398.50,127.00 C397.83,125.62 395.63,119.55 393.62,113.50 C391.61,107.45 389.55,101.84 389.04,101.03 C388.00,99.38 387.94,99.51 383.44,112.65 C381.96,116.97 380.41,120.95 379.98,121.50 C378.78,123.05 377.01,130.21 377.60,131.16 ZM 646.15 89.40 C643.97,90.75 637.31,90.97 635.00,89.76 C631.79,88.08 630.93,82.25 633.61,80.29 C635.71,78.76 640.84,78.61 644.43,79.98 C646.59,80.80 647.00,81.58 647.00,84.92 C647.00,87.10 646.62,89.12 646.15,89.40 ZM 601.27 208.00 C598.74,210.95 596.28,210.53 595.51,207.02 C595.15,205.39 595.14,203.59 595.48,203.02 C596.51,201.36 599.43,201.85 601.27,204.00 C602.88,205.89 602.88,206.11 601.27,208.00 Z" fill="rgb(31,160,240)"/>
<path d="M 452.67 165.23 C452.02,165.64 450.60,165.89 449.50,165.80 C448.40,165.70 444.91,165.46 441.75,165.26 L 436.00 164.90 L 436.00 102.00 L 453.00 102.00 L 453.00 112.33 L 456.75 108.30 C461.55,103.14 466.11,100.84 471.89,100.65 L 476.50 100.50 L 477.08 116.76 L 470.55 117.18 C463.20,117.65 459.75,119.59 456.50,125.10 C454.74,128.09 454.46,130.67 454.17,146.49 C453.94,158.77 453.46,164.72 452.67,165.23 ZM 451.40 161.50 C452.00,160.40 452.88,159.22 453.35,158.88 C453.81,158.54 454.04,150.81 453.85,141.69 L 453.50 125.12 L 457.00 121.47 C461.53,116.76 464.99,115.00 469.75,115.00 C471.87,115.00 474.14,114.46 474.80,113.80 C476.64,111.96 476.35,103.35 474.42,102.61 C469.58,100.75 462.93,103.52 456.50,110.08 L 452.50 114.16 L 451.94 110.17 C451.17,104.59 449.54,103.00 444.63,103.02 C444.33,103.02 444.04,103.02 443.76,103.01 C442.03,103.01 440.78,103.00 439.87,103.56 C437.34,105.09 437.43,110.93 437.16,133.00 C436.89,154.45 437.11,161.43 438.07,162.58 C440.02,164.93 449.95,164.13 451.40,161.50 ZM 647.73 164.81 C646.57,165.77 638.61,165.99 633.25,165.19 L 631.00 164.86 L 631.00 102.00 L 649.00 102.00 L 649.00 132.88 C649.00,156.57 648.71,164.00 647.73,164.81 ZM 645.77 162.64 C646.70,162.07 647.00,154.84 647.00,133.42 L 647.00 104.95 L 644.31 103.93 C642.83,103.36 639.81,103.04 637.60,103.20 C634.28,103.45 633.46,103.94 632.89,106.00 C632.51,107.38 632.15,120.52 632.10,135.20 C632.01,158.21 632.21,162.02 633.53,162.76 C635.38,163.79 644.05,163.71 645.77,162.64 ZM 485.00 200.00 L 485.00 275.00 L 476.00 275.00 L 476.00 200.00 ZM 483.76 238.62 C484.04,203.63 483.87,202.00 480.01,202.00 C478.45,202.00 478.20,203.53 477.75,215.75 C477.13,232.41 477.68,270.67 478.56,272.09 C478.90,272.65 480.16,272.98 481.34,272.81 C483.50,272.50 483.50,272.46 483.76,238.62 ZM 502.42 165.39 C500.70,166.05 491.87,165.99 488.25,165.29 L 486.00 164.86 L 486.00 102.00 L 502.00 102.00 L 502.00 106.00 C502.00,107.42 502.11,108.68 502.27,109.39 C501.90,108.74 501.26,107.54 500.60,106.25 C499.08,103.27 498.56,103.00 494.17,103.00 C491.55,103.00 488.86,103.54 488.20,104.20 C486.30,106.10 486.51,160.35 488.42,161.93 C489.25,162.62 492.22,162.98 495.67,162.80 L 501.50 162.50 L 502.04 143.00 C502.70,119.55 503.44,117.03 510.54,113.98 C516.29,111.52 517.14,111.52 521.99,114.00 C527.34,116.72 527.97,119.57 527.99,142.74 C527.48,120.56 527.08,118.57 522.77,115.55 C517.89,112.13 508.71,115.07 505.75,121.00 C504.26,123.98 504.00,127.47 504.00,144.64 C504.00,162.09 503.79,164.87 502.42,165.39 ZM 716.06 108.52 C717.15,109.27 717.94,108.62 720.50,106.40 C727.48,100.37 735.18,98.75 744.27,101.39 C757.52,105.24 759.00,109.28 759.00,141.56 C759.00,143.66 759.01,145.58 759.01,147.34 C759.05,159.17 759.06,163.57 757.00,165.03 C755.77,165.90 753.81,165.73 750.69,165.45 C749.91,165.38 749.05,165.31 748.12,165.24 L 741.00 164.73 L 741.00 142.50 C741.00,121.63 740.88,120.11 738.96,117.67 C734.83,112.42 726.07,113.29 721.72,119.38 C720.92,120.50 720.40,121.43 720.04,123.22 C720.15,121.53 720.24,120.40 720.31,120.00 C720.55,118.62 720.80,117.15 720.87,116.71 C720.94,116.28 723.03,115.06 725.52,113.99 C731.32,111.50 735.14,112.26 739.01,116.66 L 742.00 120.07 L 742.00 140.38 C742.00,159.28 742.14,160.81 743.96,162.46 C745.54,163.90 746.85,164.10 750.71,163.53 C753.34,163.13 756.06,162.35 756.75,161.78 C758.36,160.46 758.48,126.98 756.91,118.43 C755.52,110.90 753.74,107.93 748.66,104.64 C745.17,102.37 743.52,102.00 736.90,102.00 C729.59,102.00 728.90,102.20 723.35,105.94 L 717.50 109.88 ZM 87.77 141.98 C87.84,141.61 86.52,138.97 84.27,134.88 C86.52,138.97 87.84,141.61 87.77,141.98 C87.51,143.29 83.16,143.57 56.32,144.00 C39.18,144.27 24.79,144.87 24.34,145.33 C23.22,146.45 22.66,200.12 23.70,207.00 L 24.53 212.50 L 53.87 212.65 C70.47,212.74 83.61,213.21 84.14,213.74 C85.33,214.93 83.74,219.26 81.18,221.82 C80.14,222.86 76.72,228.17 73.59,233.61 C70.77,238.52 69.19,241.26 67.88,243.50 L 67.88 243.50 C68.37,242.40 71.98,236.11 75.89,229.53 C79.80,222.95 83.00,216.99 83.00,216.29 C83.00,215.31 76.33,214.97 52.75,214.76 L 22.50 214.50 L 22.24 179.26 L 21.97 144.03 L 54.72 143.76 C83.12,143.54 87.51,143.30 87.77,141.98 ZM 648.50 78.50 L 648.50 91.50 L 631.00 92.08 L 631.00 77.92 ZM 677.75 165.37 C675.36,166.01 669.29,165.97 664.75,165.28 L 662.00 164.87 L 662.00 102.00 L 678.00 102.00 L 678.00 106.00 C678.00,107.58 678.09,108.96 678.22,109.61 C678.09,109.25 678.00,108.70 678.00,108.07 C678.00,105.04 675.61,103.40 670.87,103.19 C670.58,103.18 670.29,103.16 670.02,103.15 C668.16,103.05 666.84,102.98 665.88,103.55 C663.35,105.04 663.43,110.96 663.18,132.55 L 663.16 133.97 C662.91,155.22 662.84,161.52 665.58,163.19 C666.74,163.90 668.40,163.78 670.75,163.61 L 671.12 163.59 C673.93,163.39 675.77,163.30 676.95,162.37 C679.16,160.64 679.10,155.99 678.90,142.31 L 678.89 141.48 C678.63,122.97 678.70,122.23 680.89,119.15 C682.14,117.40 684.45,115.30 686.03,114.48 C689.22,112.84 695.00,112.48 695.00,113.93 C695.00,114.21 695.30,114.50 695.76,114.74 C695.67,114.72 695.58,114.70 695.49,114.68 C689.73,113.49 684.61,115.88 682.02,120.97 C680.19,124.54 680.00,126.84 680.00,144.84 C680.00,164.66 679.99,164.77 677.75,165.37 ZM 364.23 161.75 C365.04,160.51 366.49,157.02 367.46,154.00 C368.81,149.80 369.40,147.42 370.91,146.09 C372.88,144.35 376.43,144.40 385.28,144.52 C386.17,144.53 387.10,144.54 388.09,144.55 C406.83,144.77 406.72,144.72 408.86,154.25 C410.65,162.25 413.11,164.18 421.06,163.80 L 427.38 163.50 L 427.31 159.39 C427.28,157.13 426.07,152.33 424.63,148.72 C423.57,146.08 422.65,143.48 422.24,141.98 C422.83,144.00 424.53,148.57 426.51,153.42 C428.97,159.43 430.77,164.56 430.51,164.82 C429.55,165.78 415.43,166.15 413.14,165.28 C411.34,164.59 410.12,162.45 407.94,156.17 C406.38,151.66 404.83,147.53 404.49,146.99 C404.13,146.41 397.39,146.00 388.07,146.00 L 372.27 146.00 L 369.70 153.25 C368.29,157.24 366.85,161.51 366.50,162.75 C365.97,164.62 365.16,165.00 361.68,165.01 C359.38,165.02 355.92,165.20 354.00,165.42 C350.69,165.79 346.00,165.26 346.00,164.52 C346.00,163.75 353.31,144.96 356.68,137.07 C358.18,133.55 359.80,129.33 360.80,126.40 C360.40,127.81 359.47,130.41 358.38,133.08 C356.94,136.61 354.94,142.43 353.94,146.02 C352.94,149.60 351.42,153.88 350.57,155.52 C347.33,161.73 349.08,164.00 357.08,164.00 C361.88,164.00 363.00,163.65 364.23,161.75 ZM 803.50 163.35 C804.60,163.02 806.69,161.90 808.15,160.87 C811.57,158.46 812.31,158.52 813.51,161.25 C814.39,163.25 815.22,163.50 821.00,163.50 L 827.50 163.50 L 827.81 148.00 C827.99,139.48 827.83,127.87 827.47,122.21 C826.69,110.18 825.49,108.09 816.82,103.71 C815.00,102.79 813.61,102.17 812.11,101.77 C820.13,102.78 824.43,105.02 826.97,109.18 C828.82,112.22 828.99,114.19 829.00,132.50 C829.01,143.50 829.45,155.17 829.98,158.44 C830.52,161.70 830.78,164.56 830.56,164.78 C829.76,165.57 818.12,166.25 815.71,165.64 C814.35,165.30 813.00,164.12 812.72,163.02 C812.20,161.06 812.09,161.07 806.82,163.48 C799.14,167.00 789.15,167.65 782.01,165.10 C778.99,164.03 775.52,161.98 774.30,160.56 C773.11,159.18 772.14,157.31 771.44,155.22 C772.48,157.58 774.61,159.17 778.90,161.70 C785.58,165.66 794.16,166.23 803.50,163.35 ZM 573.39 162.42 C573.73,161.55 574.00,153.67 574.00,144.92 C574.00,134.97 574.38,129.00 575.00,129.00 C575.55,129.00 576.01,127.99 576.02,126.75 C576.04,124.51 576.92,121.93 578.24,119.70 C578.14,119.89 578.05,120.09 577.95,120.29 C576.28,123.98 576.04,126.98 576.02,144.62 L 576.00 164.75 L 572.88 165.38 C569.54,166.04 563.94,166.01 560.25,165.29 L 558.00 164.86 L 558.00 102.00 L 574.00 102.00 L 574.00 105.94 C574.00,108.35 574.33,109.84 574.86,110.28 C574.62,110.18 574.39,109.99 574.12,109.72 C573.51,109.11 573.00,108.05 573.00,107.37 C573.00,105.02 569.84,103.00 566.18,103.02 C565.95,103.02 565.73,103.02 565.52,103.02 C563.89,103.01 562.70,103.01 561.83,103.54 C559.38,105.01 559.43,110.65 559.19,132.15 C559.02,147.13 559.14,160.42 559.46,161.69 C559.99,163.80 560.59,164.00 566.41,164.00 C571.30,164.00 572.93,163.63 573.39,162.42 ZM 769.32 272.51 C776.62,269.46 780.02,261.30 777.02,254.05 C775.47,250.30 769.60,246.71 762.25,245.01 C759.36,244.34 756.74,243.39 756.44,242.90 C756.34,242.75 756.16,242.60 755.91,242.48 C764.45,243.75 773.66,246.94 776.24,249.52 C782.67,255.94 780.20,268.81 771.72,273.14 C767.66,275.21 759.30,276.83 755.50,276.27 C743.58,274.54 738.35,271.43 735.35,264.28 C733.06,258.82 733.47,258.00 738.52,258.00 C742.45,258.00 743.18,258.34 744.02,260.54 C744.55,261.94 746.22,264.20 747.74,265.57 C750.25,267.83 751.20,268.03 758.15,267.78 C767.76,267.42 770.25,265.67 769.80,259.55 C769.67,257.78 769.49,256.72 768.93,255.91 C769.05,256.02 769.16,256.13 769.25,256.24 C773.32,260.86 770.16,266.82 762.54,268.88 C758.45,269.99 751.36,269.40 750.42,267.87 C750.12,267.39 749.03,267.00 747.99,267.00 C746.95,267.00 744.88,265.40 743.39,263.45 C741.55,261.03 740.02,260.00 738.59,260.20 C733.55,260.92 737.59,269.49 744.38,272.47 C748.76,274.39 764.76,274.42 769.32,272.51 ZM 447.50 273.00 C447.84,272.45 448.93,272.00 449.93,272.00 C452.36,272.00 459.78,263.83 460.55,260.31 C460.89,258.76 461.64,256.25 462.21,254.72 C463.77,250.62 462.65,239.18 460.23,234.50 C457.58,229.36 451.44,223.58 447.10,222.13 C442.26,220.52 434.50,220.73 428.04,222.65 C425.53,223.39 423.84,224.12 422.33,225.25 C423.98,223.84 425.72,222.70 427.41,221.96 C434.66,218.78 446.98,219.39 452.74,223.21 C459.01,227.36 461.97,231.95 463.69,240.20 C466.72,254.77 461.74,267.78 451.02,273.25 C446.62,275.50 444.32,276.00 438.43,276.00 C432.51,276.00 430.29,275.51 425.97,273.25 C419.75,270.00 415.19,264.73 413.95,259.37 C413.62,257.99 413.40,256.05 413.27,253.88 C413.53,256.47 414.08,258.26 415.10,260.29 C417.61,265.33 423.36,271.05 427.50,272.62 C431.27,274.05 446.67,274.34 447.50,273.00 ZM 578.89 272.63 C580.67,270.48 579.13,268.00 576.02,268.00 C574.49,268.00 572.80,267.44 572.27,266.75 C571.73,266.06 571.36,261.28 571.20,255.37 C571.58,265.90 572.91,267.00 578.52,267.00 L 583.00 267.00 L 583.00 275.00 L 576.75 274.98 C570.13,274.95 564.67,272.98 563.40,270.16 C562.99,269.25 562.46,259.64 562.23,248.80 L 561.79 229.10 L 557.65 228.80 C553.64,228.51 553.49,228.37 553.19,224.75 L 552.88 221.00 L 562.00 221.00 L 562.00 214.58 C562.00,205.65 562.38,205.00 567.61,205.00 L 572.00 205.00 L 572.00 219.50 C572.00,218.12 571.55,217.00 571.00,217.00 C570.45,217.00 570.00,214.52 570.00,211.50 C570.00,206.34 569.85,206.00 567.56,206.00 C564.33,206.00 563.73,207.19 563.06,214.96 L 562.50 221.50 L 559.00 222.00 C556.33,222.38 555.50,222.98 555.50,224.50 C555.50,225.94 556.27,226.59 558.25,226.82 C559.76,226.99 561.00,227.58 561.00,228.13 C561.00,228.67 561.45,228.84 562.00,228.50 C562.65,228.10 563.03,234.09 563.08,245.69 C563.16,266.25 563.93,269.63 569.06,272.25 C573.19,274.35 577.33,274.51 578.89,272.63 ZM 687.77 256.06 L 687.50 274.50 L 683.24 274.81 C680.39,275.01 678.81,274.68 678.47,273.79 C678.19,273.06 678.09,261.00 678.23,246.98 L 678.50 221.50 L 682.25 221.19 C685.91,220.89 686.00,220.96 686.00,224.27 C686.00,225.44 686.11,226.59 686.29,227.37 L 684.99 225.82 C683.19,223.66 681.81,222.86 680.67,223.30 C679.17,223.87 679.00,226.38 679.00,247.28 C679.00,271.93 679.46,274.63 683.57,273.85 C685.36,273.50 685.52,272.39 685.78,258.03 C685.94,249.16 686.48,242.32 687.05,241.97 C687.60,241.63 688.11,239.69 688.19,237.65 C688.30,234.64 689.16,233.19 692.78,229.85 C697.06,225.90 697.42,225.77 702.29,226.35 C705.07,226.68 707.61,227.33 707.92,227.80 C708.24,228.26 709.31,228.94 710.30,229.31 C712.17,230.00 713.35,231.66 714.05,235.54 C713.27,231.47 711.87,229.90 709.48,228.99 C702.88,226.48 694.85,228.70 690.66,234.21 C688.09,237.57 688.04,237.93 687.77,256.06 ZM 389.31 272.47 C391.87,271.46 394.86,269.10 397.00,266.40 C398.92,263.98 401.06,261.35 401.75,260.57 C402.17,260.09 402.48,259.46 402.69,258.71 C401.87,264.91 398.05,269.50 390.60,273.29 C385.90,275.67 383.23,276.30 376.64,276.59 C359.10,277.36 346.55,269.60 344.09,256.46 C343.58,253.73 343.28,251.39 343.41,251.26 C343.55,251.12 345.76,250.72 348.33,250.37 C352.41,249.81 353.00,249.96 353.00,251.55 C353.00,255.14 357.22,261.99 361.27,264.97 C362.94,266.20 364.04,266.93 365.43,267.36 C364.56,267.14 363.88,266.86 363.44,266.53 C362.37,265.72 360.75,265.05 359.83,265.03 C357.94,265.00 352.43,258.47 351.87,255.61 C351.31,252.75 348.51,251.33 346.58,252.93 C344.47,254.68 344.59,256.76 347.06,261.38 C349.13,265.24 354.68,271.00 356.32,271.00 C356.80,271.00 358.62,271.64 360.35,272.43 C362.08,273.22 364.40,274.10 365.50,274.38 C369.36,275.38 385.14,274.11 389.31,272.47 ZM 529.62 271.77 C531.20,270.55 533.11,268.96 533.86,268.24 C534.34,267.77 534.89,267.58 535.43,267.61 C535.39,267.64 535.36,267.69 535.33,267.77 C535.05,268.47 532.77,270.61 530.26,272.52 C526.05,275.74 525.18,276.00 518.59,276.00 C512.62,276.00 510.86,275.59 507.74,273.47 C500.96,268.86 500.54,267.17 500.18,242.75 L 499.86 221.00 L 509.00 221.00 L 509.01 239.25 C509.01,254.16 509.48,260.75 511.22,264.10 C510.49,263.11 510.00,262.11 510.00,261.55 C510.00,260.70 509.55,260.00 509.00,260.00 C508.37,260.00 508.00,253.40 508.00,242.20 C508.00,223.90 507.62,222.00 503.91,222.00 C501.33,222.00 501.00,223.98 501.00,239.44 C501.00,261.63 501.56,265.02 506.02,269.89 L 509.77 274.00 L 518.25 274.00 C525.49,274.00 527.15,273.67 529.62,271.77 ZM 646.15 89.40 C646.62,89.12 647.00,87.10 647.00,84.92 C647.00,81.58 646.59,80.80 644.43,79.98 C640.84,78.61 635.71,78.76 633.61,80.29 C630.93,82.25 631.79,88.08 635.00,89.76 C637.31,90.97 643.97,90.75 646.15,89.40 ZM 420.18 136.50 C419.19,134.85 417.78,131.36 417.06,128.75 C416.33,126.14 415.36,124.00 414.90,124.00 C413.43,124.00 410.96,118.15 411.18,115.23 C411.30,113.69 409.09,106.59 406.27,99.46 C403.45,92.33 400.86,85.34 400.51,83.93 C399.74,80.80 395.27,78.95 388.93,79.12 C380.84,79.33 378.65,80.21 377.92,83.50 C377.56,85.15 375.86,89.50 374.13,93.16 C372.41,96.83 371.00,100.53 371.00,101.38 C371.00,102.24 369.93,105.32 368.62,108.22 C367.32,111.13 365.74,115.36 365.12,117.63 C364.50,119.90 363.32,122.32 362.50,123.00 C362.13,123.31 361.79,123.70 361.53,124.09 L 361.53 124.07 C362.23,121.56 365.12,113.43 367.95,106.00 C370.79,98.57 374.32,89.24 375.80,85.25 L 378.49 78.00 L 398.92 78.00 L 400.04 82.25 C400.66,84.59 404.43,94.82 408.44,105.00 C412.44,115.18 416.32,125.75 417.04,128.50 C417.77,131.25 419.19,134.85 420.18,136.50 ZM 749.22 240.15 C746.18,238.24 743.00,235.34 743.00,233.97 C743.00,233.09 744.38,231.05 746.07,229.44 C748.84,226.78 749.74,226.51 755.41,226.63 C762.55,226.78 765.36,227.96 769.17,232.39 C771.36,234.93 772.17,235.30 773.61,234.43 C776.42,232.73 776.31,231.42 773.04,227.70 C769.57,223.75 764.80,221.29 759.78,220.37 C769.70,221.19 773.30,223.25 776.09,229.40 C779.05,235.91 778.71,237.01 773.75,236.96 C770.08,236.93 769.23,236.49 767.50,233.74 C764.65,229.22 761.49,227.86 754.79,228.27 C745.40,228.85 742.34,233.50 747.78,238.93 C748.23,239.39 748.71,239.79 749.22,240.15 ZM 617.72 133.15 C617.56,130.58 617.34,129.00 617.10,129.00 C616.61,129.00 615.89,125.90 615.51,122.12 C614.73,114.33 611.77,107.62 607.84,104.71 C602.10,100.47 585.67,101.67 580.09,106.73 C577.64,108.96 576.43,110.00 575.62,110.27 C575.99,110.01 576.39,109.43 576.82,108.50 C577.43,107.17 580.30,104.83 583.21,103.31 C590.08,99.73 600.00,99.50 607.29,102.77 C611.42,104.63 612.45,105.71 614.79,110.71 C617.15,115.76 617.46,116.64 617.72,133.15 ZM 599.21 121.28 C599.40,121.84 599.68,122.30 600.00,122.50 C600.61,122.88 601.00,130.47 601.00,141.94 C601.00,155.78 601.33,161.02 602.25,161.77 C602.94,162.33 605.97,162.95 609.00,163.15 C613.92,163.46 614.60,163.26 615.49,161.25 C616.03,160.01 616.82,159.00 617.24,159.00 C617.56,159.00 617.83,155.04 617.95,149.48 L 618.15 164.72 L 614.95 165.36 C610.96,166.16 605.21,166.16 602.25,165.37 C600.01,164.77 600.00,164.67 600.00,144.51 C600.00,131.59 599.88,124.97 599.21,121.28 ZM 373.40 199.10 C377.67,198.98 381.76,199.23 384.34,199.96 C392.75,202.31 398.48,208.95 399.69,217.75 L 400.27 222.00 L 395.71 222.00 C391.33,222.00 391.11,221.86 389.95,218.25 C389.29,216.19 388.02,213.65 387.12,212.61 C384.57,209.63 378.71,207.35 373.03,207.05 C373.33,207.06 373.64,207.06 373.95,207.06 C382.85,207.22 388.25,209.96 390.56,215.50 C392.24,219.52 393.36,220.34 396.01,219.50 C398.67,218.65 398.52,216.18 395.45,210.70 C391.84,204.23 383.23,199.76 373.40,199.10 ZM 652.79 272.10 C657.18,269.85 660.11,266.80 662.52,262.00 C663.49,260.08 664.73,258.21 665.28,257.86 C665.68,257.59 666.06,255.32 666.26,252.29 C666.04,257.42 665.47,260.10 664.17,262.63 C661.40,268.00 656.29,272.63 651.12,274.46 C641.15,277.97 628.29,275.31 621.81,268.38 C616.47,262.67 614.37,254.14 615.07,245.88 C615.03,246.53 615.01,247.19 615.01,247.87 C614.99,256.85 621.58,268.55 628.81,272.37 C633.09,274.63 648.19,274.46 652.79,272.10 ZM 602.80 205.75 L 602.50 211.50 L 598.96 211.80 C597.02,211.96 595.11,211.77 594.71,211.38 C594.32,210.99 594.00,208.27 594.00,205.33 L 594.00 200.00 L 603.10 200.00 ZM 387.62 245.33 C384.81,243.90 380.16,242.64 371.00,240.47 C358.09,237.40 353.78,235.53 349.67,231.20 C341.69,222.80 345.61,207.85 357.38,201.81 C359.40,200.78 363.10,199.99 367.22,199.53 C361.18,201.00 353.19,205.35 350.47,209.04 C346.07,215.00 346.24,224.99 350.83,230.50 C354.45,234.83 362.26,238.06 373.93,240.03 C376.91,240.54 379.61,241.30 379.93,241.73 C380.24,242.15 382.52,243.21 385.00,244.08 C385.91,244.41 386.79,244.83 387.62,245.33 ZM 203.38 293.90 C202.97,294.14 202.58,294.37 202.19,294.60 C191.02,301.23 188.32,302.84 186.91,302.07 C186.41,301.80 186.07,301.23 185.58,300.47 C184.71,299.15 184.00,297.83 184.00,297.54 C184.00,297.31 182.28,294.40 179.93,290.62 C184.89,298.41 185.64,299.00 188.47,299.00 C190.26,299.00 193.25,297.99 195.13,296.75 C197.00,295.51 200.55,293.42 203.02,292.10 C205.48,290.77 209.44,288.41 211.80,286.85 C214.17,285.28 216.42,283.99 216.80,283.98 C217.19,283.97 218.62,283.08 220.00,282.00 C221.38,280.92 223.49,280.03 224.69,280.02 C225.25,280.02 225.81,279.92 226.29,279.77 C224.72,280.76 223.34,281.64 222.32,282.30 C219.12,284.40 210.60,289.61 203.38,293.90 ZM 433.50 267.80 C437.95,269.35 440.03,269.15 444.99,266.71 C450.65,263.92 453.68,259.41 454.55,252.46 C456.79,234.52 445.00,223.39 430.66,229.93 C428.92,230.72 427.46,231.74 426.27,233.04 C432.37,224.55 440.57,223.77 449.77,230.95 C456.01,235.81 457.93,249.25 453.61,257.78 C450.77,263.38 448.82,265.25 443.63,267.40 C439.23,269.22 437.74,269.27 433.50,267.80 ZM 775.29 111.05 C774.19,112.91 774.26,114.92 774.89,119.25 C774.95,119.66 777.36,120.00 780.25,120.00 C785.08,120.00 785.82,119.67 789.47,115.90 L 793.45 111.80 L 798.88 112.08 C796.82,112.19 795.63,112.81 793.62,114.34 C791.76,115.76 789.95,118.08 789.59,119.50 C788.95,122.04 788.82,122.08 780.72,121.79 C773.15,121.52 772.48,121.33 772.19,119.33 C771.90,117.32 773.27,113.97 775.29,111.05 ZM 571.83 231.25 C571.89,230.92 571.95,230.64 572.02,230.43 C572.96,227.59 573.64,227.00 576.02,227.00 C579.24,227.00 580.30,225.93 579.40,223.59 C579.00,222.57 577.57,222.00 575.39,222.00 C573.33,222.00 572.49,221.84 572.18,221.00 L 583.12 221.00 L 582.50 228.50 L 577.35 228.80 C574.27,228.98 572.66,229.10 571.83,231.25 ZM 601.27 208.00 C602.88,206.11 602.88,205.89 601.27,204.00 C599.43,201.85 596.51,201.36 595.48,203.02 C595.14,203.59 595.15,205.39 595.51,207.02 C596.28,210.53 598.74,210.95 601.27,208.00 ZM 754.80 250.75 C742.44,248.62 735.01,242.64 735.00,234.77 C735.00,232.73 735.36,231.37 736.65,229.60 C735.94,230.90 735.98,232.13 736.26,234.60 C736.95,240.73 741.55,245.52 748.74,247.61 C751.63,248.45 754.00,249.56 754.00,250.07 C754.00,250.34 754.31,250.58 754.80,250.75 ZM 678.47 109.97 C678.88,109.78 680.41,108.49 682.07,106.94 C687.41,101.95 690.87,100.57 698.00,100.57 C701.32,100.57 704.38,101.09 707.07,102.07 C704.44,101.25 701.42,101.29 696.83,101.84 C690.51,102.61 688.24,103.34 686.15,105.28 C683.65,107.62 679.81,110.00 678.57,110.00 C678.53,110.00 678.50,109.99 678.47,109.97 ZM 535.54 267.62 C536.82,267.76 538.00,269.14 538.00,271.02 C538.00,273.37 540.60,274.26 543.04,272.74 C544.80,271.64 544.98,270.42 544.99,251.76 L 545.00 275.00 L 536.00 275.00 L 535.92 270.75 C535.89,269.01 535.73,267.83 535.54,267.62 ZM 236.99 102.00 C235.86,103.93 233.60,107.53 231.97,110.00 C233.60,107.53 235.96,103.75 237.22,101.61 C240.02,96.85 240.98,95.31 243.48,91.59 C246.84,86.60 246.51,84.55 241.77,80.69 C239.42,78.78 231.20,73.50 223.50,68.95 L 223.04 68.67 C233.48,74.80 238.51,77.60 241.08,78.77 C249.41,82.55 249.55,82.84 245.79,88.35 C241.51,94.62 239.52,97.72 236.99,102.00 ZM 812.46 137.92 C811.92,135.22 811.50,134.92 809.69,135.50 C808.48,135.89 803.74,137.01 799.14,138.00 C794.09,139.08 791.29,139.90 789.66,141.22 C790.28,140.59 790.98,140.09 791.73,139.76 C793.25,139.09 794.72,138.30 795.00,138.00 C795.66,137.29 804.67,134.82 808.67,134.25 C811.69,133.82 811.86,133.93 812.46,137.92 ZM 227.03 231.39 C224.32,226.86 221.18,222.40 219.65,220.97 C217.06,218.54 216.70,217.71 217.61,216.26 C217.87,215.84 218.24,215.52 219.09,215.27 C219.02,215.40 219.00,215.55 219.00,215.71 C219.00,216.76 222.57,223.58 227.03,231.39 ZM 715.83 272.85 C715.11,271.16 715.00,267.03 715.00,254.92 L 715.00 254.75 ZM 543.80 164.14 C544.73,163.55 544.99,159.21 544.86,144.60 L 545.10 163.94 L 542.76 164.52 C542.09,164.69 540.78,164.81 539.21,164.85 C541.43,164.72 543.27,164.48 543.80,164.14 ZM 227.50 279.01 C228.06,278.37 232.27,275.70 237.10,272.94 C238.34,272.23 239.45,271.58 240.43,270.99 C239.45,271.64 238.40,272.30 237.32,272.96 C234.28,274.79 230.63,277.05 227.50,279.01 ZM 770.73 152.59 C770.21,150.10 770.07,147.48 770.40,145.08 C770.68,143.09 771.10,141.36 771.76,139.84 C770.86,142.09 770.50,144.79 770.50,148.10 C770.50,149.89 770.55,151.35 770.73,152.59 ZM 633.80 220.95 C628.72,222.23 624.45,225.00 621.26,228.88 C623.22,226.33 625.60,224.23 628.38,222.81 C629.93,222.01 631.79,221.39 633.80,220.95 ZM 795.39 101.27 C787.59,101.98 782.24,104.08 778.06,107.95 C777.36,108.60 776.77,109.16 776.29,109.70 C777.20,108.58 778.18,107.58 779.18,106.82 C783.60,103.48 788.33,101.78 795.39,101.27 ZM 687.08 228.32 C687.77,228.10 689.13,227.17 690.65,225.87 L 687.63 228.98 ZM 764.55 253.23 C762.37,252.39 759.04,251.49 756.27,251.00 C756.34,251.00 756.41,251.00 756.48,251.00 C758.54,251.00 761.78,251.97 764.55,253.23 ZM 787.90 143.84 C787.67,144.49 787.51,145.24 787.37,146.09 C787.04,148.14 787.42,149.97 788.40,151.45 C787.53,150.35 787.00,149.13 787.00,147.95 C787.00,146.52 787.33,145.10 787.90,143.84 ZM 663.04 233.45 C660.48,228.43 656.97,224.80 652.60,222.60 C657.18,224.69 660.29,228.00 663.04,233.45 ZM 423.41 258.80 C422.04,256.18 421.64,250.43 422.10,245.20 C422.03,246.22 422.00,247.28 422.00,248.41 C422.00,253.09 422.55,257.16 423.41,258.80 ZM 419.66 227.84 C419.44,228.10 419.22,228.37 418.99,228.65 C415.88,232.54 414.34,235.40 413.63,239.66 C413.81,238.22 414.05,237.03 414.33,236.25 C415.36,233.40 417.31,230.41 419.66,227.84 ZM 794.02 154.89 C800.57,156.25 806.67,153.65 810.04,149.11 C806.76,153.76 800.76,156.29 794.02,154.89 ZM 517.43 267.88 C521.30,268.40 526.25,267.64 529.10,265.73 C525.89,267.88 521.22,268.59 517.43,267.88 ZM 368.14 267.85 C369.66,267.98 371.63,268.00 374.45,268.00 C376.13,268.00 377.65,267.95 379.02,267.86 C375.38,268.22 371.29,268.22 368.14,267.85 ZM 594.31 115.16 C597.01,116.28 599.00,118.03 599.00,119.96 C599.00,120.09 599.01,120.22 599.02,120.35 C598.48,118.11 597.65,117.16 596.38,116.33 C595.70,115.88 595.00,115.49 594.31,115.16 ZM 698.14 220.91 C700.93,219.97 704.10,219.85 708.33,220.35 C710.93,220.66 712.99,221.21 714.72,222.15 C712.79,221.13 710.42,220.58 707.30,220.29 C703.63,219.96 700.69,220.13 698.14,220.91 ZM 393.40 257.85 C394.41,254.84 393.86,252.10 391.75,249.02 L 391.74 249.00 C393.15,250.84 394.00,252.93 394.00,254.90 C393.99,255.81 393.78,256.81 393.40,257.85 ZM 741.80 224.26 C744.12,222.39 746.54,221.24 749.55,220.65 C746.76,221.34 744.11,222.54 741.80,224.26 ZM 709.66 103.22 C711.48,104.19 713.08,105.42 714.40,106.89 C714.57,107.07 714.72,107.24 714.86,107.39 L 714.50 107.05 C712.70,105.36 711.18,104.11 709.66,103.22 ZM 697.61 115.24 C699.38,115.59 700.53,116.61 701.29,119.44 C700.55,116.96 699.40,115.89 697.61,115.24 ZM 361.49 209.09 C357.83,211.08 356.00,214.51 356.00,219.38 C356.00,214.37 357.72,211.02 361.49,209.09 ZM 242.22 256.31 C241.07,254.40 239.48,251.87 237.94,249.50 C236.32,247.01 233.89,243.08 231.60,239.22 C233.90,243.07 236.20,246.79 238.19,249.82 C239.87,252.38 241.36,254.79 242.22,256.31 ZM 174.96 282.75 C166.24,268.99 160.72,260.13 157.32,254.33 C160.68,260.03 166.17,268.83 174.96,282.75 ZM 61.98 271.65 C65.52,274.14 70.39,277.33 76.50,281.16 C78.70,282.54 84.32,286.16 89.00,289.19 C84.32,286.16 78.81,282.62 76.75,281.33 C70.65,277.53 65.64,274.25 61.98,271.65 ZM 805.19 112.54 C807.66,112.90 808.65,113.55 809.87,115.01 C809.91,115.07 809.96,115.12 810.00,115.18 C811.41,116.91 812.03,118.63 811.85,120.34 C811.72,121.58 811.16,122.82 810.17,124.04 C811.16,122.82 811.72,121.58 811.85,120.34 C812.02,118.64 811.41,116.93 810.00,115.18 C809.97,115.14 809.94,115.11 809.92,115.08 C808.75,113.68 807.50,112.96 805.19,112.54 ZM 581.16 116.06 C581.87,115.43 582.61,114.94 583.35,114.63 C583.70,114.48 584.07,114.36 584.45,114.25 C583.26,114.65 582.15,115.26 581.16,116.06 ZM 246.20 263.18 C246.18,263.16 246.17,263.14 246.15,263.11 C245.82,262.66 245.38,261.95 244.93,261.18 C244.98,261.24 245.03,261.31 245.07,261.37 C245.51,261.92 245.90,262.56 246.20,263.18 ZM 528.50 164.50 L 528.47 163.25 C528.53,163.89 528.60,164.27 528.67,164.33 C528.74,164.40 528.88,164.47 529.07,164.53 ZM 57.04 261.53 C55.84,263.66 55.05,265.20 55.00,265.57 C55.00,265.56 55.00,265.55 55.00,265.54 C55.00,265.23 55.79,263.70 57.04,261.53 ZM 753.25 241.97 C752.72,241.89 752.08,241.67 751.37,241.35 C751.96,241.59 752.58,241.80 753.25,241.97 ZM 246.47 266.28 C246.66,265.98 246.78,265.69 246.84,265.40 C246.84,265.51 246.84,265.62 246.82,265.71 C246.79,265.85 246.67,266.04 246.47,266.28 ZM 505.70 107.92 C506.22,107.52 506.77,107.09 507.33,106.63 C510.91,103.74 513.10,102.26 515.68,101.50 C513.08,102.27 510.86,103.78 507.20,106.74 C506.68,107.16 506.17,107.56 505.70,107.92 ZM 666.00 240.99 C665.65,239.14 664.99,237.49 663.85,235.10 C665.01,237.50 665.66,239.12 666.00,240.99 ZM 422.02 141.06 C422.00,140.97 422.00,140.89 422.00,140.83 C422.00,140.80 422.00,140.78 421.99,140.75 C422.01,140.84 422.01,140.93 422.02,141.00 C422.02,141.02 422.02,141.04 422.02,141.06 Z" fill="rgb(74,168,220)"/>
<path d="M 597.94 100.54 C592.75,100.18 587.41,101.12 583.21,103.31 C580.30,104.83 577.43,107.17 576.82,108.50 C576.39,109.43 575.99,110.01 575.62,110.27 C575.33,110.36 575.09,110.36 574.86,110.28 C574.33,109.84 574.00,108.35 574.00,105.94 L 574.00 102.00 L 558.00 102.00 L 558.00 101.00 L 566.02 101.00 C573.73,101.00 574.09,101.10 575.03,103.58 C575.57,105.00 576.35,106.01 576.76,105.83 C577.17,105.64 579.96,104.20 582.97,102.62 C587.95,100.00 589.08,99.79 595.64,100.29 C596.37,100.34 597.14,100.43 597.94,100.54 ZM 687.08 228.32 L 686.29 227.37 C686.11,226.59 686.00,225.44 686.00,224.27 C686.00,220.96 685.91,220.89 682.25,221.19 L 678.50 221.50 L 678.23 246.98 C678.19,250.68 678.17,254.24 678.17,257.49 C678.17,254.10 678.19,250.36 678.23,246.48 L 678.50 220.50 L 682.25 220.19 C685.49,219.92 686.14,220.23 686.98,222.44 C688.06,225.30 689.21,225.66 690.86,223.66 C691.78,222.56 694.74,221.54 698.20,220.89 L 698.14 220.91 C695.46,221.73 693.21,223.22 690.99,225.51 L 690.65 225.87 C689.13,227.17 687.77,228.10 687.08,228.32 ZM 514.23 102.02 C512.20,102.88 510.22,104.30 507.33,106.63 C506.77,107.09 506.22,107.52 505.70,107.92 C504.01,109.20 502.71,110.02 502.57,109.86 C502.52,109.81 502.42,109.64 502.27,109.39 C502.11,108.68 502.00,107.42 502.00,106.00 L 502.00 103.53 C502.00,105.51 504.66,106.53 506.29,105.18 C507.66,104.03 510.75,102.87 514.23,102.02 ZM 812.46 137.92 L 812.49 138.15 C813.03,141.84 812.34,145.22 810.76,147.99 C811.26,146.82 811.33,145.50 811.23,143.31 C810.92,136.28 810.06,135.89 799.64,137.99 C794.18,139.10 791.25,139.92 789.59,141.30 C789.61,141.27 789.64,141.25 789.66,141.22 C791.29,139.90 794.09,139.08 799.14,138.00 C803.74,137.01 808.48,135.89 809.69,135.50 C811.50,134.92 811.92,135.22 812.46,137.92 ZM 464.80 102.21 C462.02,103.44 459.42,105.43 456.75,108.30 L 453.00 112.33 L 453.00 104.44 C453.00,107.90 454.77,108.56 457.41,106.09 C458.74,104.84 461.69,103.37 464.80,102.21 ZM 389.04 101.03 C389.46,101.69 390.90,105.53 392.50,110.19 C390.98,106.29 390.05,105.00 389.04,105.00 C386.64,105.00 385.74,106.34 383.01,114.00 C382.65,115.01 382.28,116.00 381.92,116.92 C382.40,115.62 382.93,114.16 383.44,112.65 C387.94,99.51 388.00,99.38 389.04,101.03 ZM 684.42 104.88 C683.67,105.49 682.89,106.17 682.07,106.94 C680.41,108.49 678.88,109.78 678.47,109.97 C678.38,109.92 678.30,109.79 678.22,109.61 C678.09,108.96 678.00,107.58 678.00,106.00 L 678.00 102.11 C678.60,102.47 678.79,103.06 679.02,104.00 C679.64,106.52 681.04,106.84 684.42,104.88 ZM 535.54 267.62 C535.73,267.83 535.89,269.01 535.92,270.75 L 535.96 273.10 C535.66,271.49 533.34,271.79 529.00,274.00 C528.24,274.39 527.41,274.72 526.53,275.00 C527.62,274.49 528.72,273.70 530.26,272.52 C532.77,270.61 535.05,268.47 535.33,267.77 C535.36,267.69 535.39,267.64 535.43,267.61 C535.46,267.61 535.50,267.62 535.54,267.62 ZM 377.60 131.16 C377.13,130.40 378.16,125.69 379.21,123.03 C378.75,125.39 379.16,129.26 380.25,130.50 C381.01,131.36 384.99,131.92 388.48,132.00 C382.78,132.00 377.88,131.62 377.60,131.16 ZM 390.44 131.99 C392.48,131.92 394.00,131.64 394.00,131.11 C394.00,130.62 395.16,129.93 396.57,129.57 C398.03,129.20 398.93,128.40 398.65,127.71 C398.56,127.47 398.25,126.61 397.80,125.34 C398.10,126.11 398.34,126.68 398.50,127.00 C400.56,131.21 399.78,131.92 390.44,131.99 ZM 677.80 102.00 L 662.50 102.00 L 662.50 101.50 L 670.45 101.50 C674.81,101.50 676.79,101.53 677.80,102.00 ZM 711.32 104.23 C710.79,103.87 710.23,103.53 709.66,103.22 C708.81,102.73 707.96,102.35 707.07,102.07 C704.38,101.09 701.32,100.57 698.00,100.57 C695.60,100.57 693.62,100.73 691.84,101.12 C698.21,99.35 705.91,100.53 711.32,104.23 ZM 475.40 100.54 L 471.89 100.65 C470.56,100.69 469.29,100.85 468.07,101.13 C470.44,100.44 472.61,100.05 473.88,100.20 C474.53,100.27 475.03,100.34 475.40,100.54 ZM 522.10 275.94 C519.82,276.21 517.44,276.20 515.20,275.93 C516.17,275.98 517.28,276.00 518.59,276.00 C519.99,276.00 521.13,275.99 522.10,275.94 ZM 532.32 102.17 C529.65,101.21 526.54,100.74 522.97,100.77 C522.89,100.77 522.80,100.77 522.72,100.77 C523.03,100.76 523.34,100.75 523.64,100.75 C526.87,100.75 529.78,101.23 532.32,102.17 ZM 715.83 272.85 C715.07,271.24 715.00,267.27 715.00,254.93 C715.00,267.04 715.11,271.16 715.83,272.85 ZM 721.43 273.43 C720.28,274.58 719.79,275.02 718.99,274.88 C719.77,274.94 720.38,274.48 721.43,273.43 ZM 661.97 164.86 L 662.00 161.52 L 662.00 164.87 L 664.74 165.28 Z" fill="rgb(186,233,250)"/>
<path d="M 0.00 171.00 L 0.00 0.00 L 426.00 0.00 L 852.00 0.00 L 852.00 171.00 L 852.00 342.00 L 426.00 342.00 L 0.00 342.00 L 0.00 171.00 ZM 203.38 293.90 C210.60,289.61 219.12,284.40 222.32,282.30 C225.53,280.21 232.27,276.01 237.32,272.96 C242.36,269.91 246.64,266.65 246.82,265.71 C247.00,264.77 246.21,262.82 245.07,261.37 C243.93,259.92 243.00,258.37 243.00,257.94 C243.00,257.50 240.84,253.85 238.19,249.82 C230.73,238.46 219.00,217.61 219.00,215.71 C219.00,214.14 221.20,214.00 246.35,214.00 C271.65,214.00 273.81,213.86 275.36,212.16 C276.86,210.50 277.00,206.96 276.76,177.41 L 276.50 144.50 L 245.50 143.96 C228.45,143.67 214.39,143.33 214.25,143.21 C214.11,143.10 214.00,142.06 214.00,140.92 C214.00,139.00 215.32,136.67 223.56,124.00 C225.17,121.53 227.05,118.38 227.75,117.00 C228.44,115.62 230.34,112.47 231.97,110.00 C233.60,107.53 235.86,103.93 236.99,102.00 C239.52,97.72 241.51,94.62 245.79,88.35 C249.55,82.84 249.41,82.55 241.08,78.77 C237.06,76.94 227.05,71.15 199.71,54.84 C194.33,51.63 189.10,49.00 188.08,49.00 C186.38,49.00 184.31,51.37 181.54,56.50 C180.95,57.60 178.41,61.65 175.89,65.50 C173.37,69.35 166.85,79.81 161.41,88.73 C155.96,97.66 151.02,104.97 150.42,104.98 C148.69,105.01 145.78,101.35 135.86,86.61 C123.20,67.82 113.76,53.63 112.24,51.10 C110.47,48.14 107.50,48.48 101.60,52.34 C98.80,54.17 92.00,58.60 86.50,62.18 C56.52,81.67 54.47,83.19 55.27,85.25 C55.58,86.08 63.09,98.84 71.95,113.60 C80.81,128.37 87.93,141.14 87.77,141.98 C87.51,143.30 83.12,143.54 54.72,143.76 L 21.97 144.03 L 22.24 179.26 L 22.50 214.50 L 52.75 214.76 C76.33,214.97 83.00,215.31 83.00,216.29 C83.00,216.99 79.80,222.95 75.89,229.53 C71.98,236.11 68.37,242.40 67.88,243.50 C67.39,244.60 64.29,249.77 60.99,255.00 C57.70,260.23 55.00,264.97 55.00,265.54 C55.00,266.95 63.15,272.87 76.75,281.33 C78.81,282.62 84.32,286.16 89.00,289.19 C109.66,302.62 109.97,302.75 112.24,298.81 C112.93,297.61 116.40,292.32 119.94,287.06 C123.49,281.80 130.10,271.88 134.63,265.00 C139.16,258.12 143.86,251.24 145.06,249.69 C146.27,248.15 147.25,245.87 147.25,244.63 C147.25,243.26 143.00,237.12 136.40,228.94 C130.44,221.55 122.29,211.45 118.29,206.50 C114.30,201.55 111.03,196.73 111.02,195.79 C111.00,194.04 115.22,185.73 117.52,183.00 C118.21,182.18 119.76,179.48 120.96,177.00 C122.16,174.52 124.22,170.70 125.53,168.50 C126.84,166.30 129.06,162.25 130.48,159.50 C131.89,156.75 134.14,152.70 135.48,150.50 C136.82,148.30 138.81,144.70 139.92,142.50 C142.85,136.63 147.38,130.55 149.04,130.24 C150.71,129.92 153.59,134.31 161.04,148.50 C163.93,154.00 166.63,158.95 167.04,159.50 C167.45,160.05 169.25,163.20 171.04,166.50 C176.27,176.13 181.97,186.26 183.99,189.50 C185.01,191.15 185.89,193.63 185.93,195.00 C185.99,197.30 179.67,206.74 168.50,221.00 C156.25,236.63 153.00,241.15 152.45,243.32 C151.85,245.74 155.69,252.39 178.13,287.76 C181.36,292.85 184.00,297.25 184.00,297.54 C184.00,297.83 184.71,299.15 185.58,300.47 C187.51,303.42 187.04,303.60 203.38,293.90 ZM 390.60 273.29 C398.32,269.37 402.14,264.58 402.77,258.03 C403.41,251.42 401.44,244.66 397.85,241.15 C394.81,238.19 384.68,234.33 372.50,231.50 C362.42,229.16 362.28,229.11 358.99,226.34 C356.50,224.24 356.00,223.09 356.00,219.38 C356.00,211.10 361.29,206.98 371.87,207.02 C377.89,207.05 384.39,209.43 387.12,212.61 C388.02,213.65 389.29,216.19 389.95,218.25 C391.11,221.86 391.33,222.00 395.71,222.00 L 400.27 222.00 L 399.69 217.75 C398.48,208.95 392.75,202.31 384.34,199.96 C377.95,198.17 362.41,199.24 357.38,201.81 C345.61,207.85 341.69,222.80 349.67,231.20 C353.78,235.53 358.09,237.40 371.00,240.47 C386.63,244.18 389.14,245.21 391.75,249.02 C394.52,253.06 394.60,256.51 392.01,260.76 C388.56,266.42 384.73,267.99 374.45,268.00 C365.94,268.00 365.15,267.82 361.27,264.97 C357.22,261.99 353.00,255.14 353.00,251.55 C353.00,249.96 352.41,249.81 348.33,250.37 C345.76,250.72 343.55,251.12 343.41,251.26 C343.28,251.39 343.58,253.73 344.09,256.46 C346.55,269.60 359.10,277.36 376.64,276.59 C383.23,276.30 385.90,275.67 390.60,273.29 ZM 771.72 273.14 C780.20,268.81 782.67,255.94 776.24,249.52 C773.62,246.90 764.17,243.66 755.53,242.42 C752.05,241.92 749.72,240.87 747.78,238.93 C742.34,233.50 745.40,228.85 754.79,228.27 C761.49,227.86 764.65,229.22 767.50,233.74 C769.23,236.49 770.08,236.93 773.75,236.96 C778.71,237.01 779.05,235.91 776.09,229.40 C773.30,223.25 769.70,221.19 760.40,220.42 C749.62,219.53 744.67,220.98 739.25,226.62 C735.80,230.21 735.00,231.73 735.00,234.77 C735.01,242.81 742.76,248.87 755.60,250.88 C758.95,251.41 763.45,252.66 765.60,253.67 C769.08,255.31 769.53,255.94 769.80,259.55 C770.25,265.67 767.76,267.42 758.15,267.78 C751.20,268.03 750.25,267.83 747.74,265.57 C746.22,264.20 744.55,261.94 744.02,260.54 C743.18,258.34 742.45,258.00 738.52,258.00 C733.47,258.00 733.06,258.82 735.35,264.28 C738.35,271.43 743.58,274.54 755.50,276.27 C759.30,276.83 767.66,275.21 771.72,273.14 ZM 451.02 273.25 C461.74,267.78 466.72,254.77 463.69,240.20 C461.97,231.95 459.01,227.36 452.74,223.21 C446.98,219.39 434.66,218.78 427.41,221.96 C422.15,224.26 416.40,230.54 414.33,236.25 C412.92,240.14 412.69,253.95 413.95,259.37 C415.19,264.73 419.75,270.00 425.97,273.25 C430.29,275.51 432.51,276.00 438.43,276.00 C444.32,276.00 446.62,275.50 451.02,273.25 ZM 529.00 274.00 C533.67,271.62 536.00,271.45 536.00,273.50 C536.00,274.61 537.17,275.00 540.50,275.00 L 545.00 275.00 L 544.99 250.25 C544.98,236.64 544.70,224.49 544.37,223.25 C543.58,220.31 538.55,220.09 537.04,222.93 C536.45,224.03 536.00,231.70 536.00,240.68 C536.00,258.54 535.12,261.71 529.10,265.73 C525.02,268.46 516.66,268.85 513.26,266.47 C509.83,264.07 509.01,258.84 509.01,239.25 L 509.00 221.00 L 504.43 221.00 L 499.86 221.00 L 500.18 242.75 C500.54,267.17 500.96,268.86 507.74,273.47 C512.64,276.80 523.01,277.06 529.00,274.00 ZM 651.12 274.46 C656.29,272.63 661.40,268.00 664.17,262.63 C665.68,259.69 666.21,256.54 666.33,249.61 C666.49,241.14 666.26,239.97 663.26,233.87 C659.57,226.38 655.28,222.81 647.69,220.93 C641.66,219.43 633.43,220.23 628.38,222.81 C613.92,230.19 610.20,255.97 621.81,268.38 C628.29,275.31 641.15,277.97 651.12,274.46 ZM 485.00 237.50 L 485.00 200.00 L 480.50 200.00 L 476.00 200.00 L 476.00 237.50 L 476.00 275.00 L 480.50 275.00 L 485.00 275.00 L 485.00 237.50 ZM 583.00 271.00 L 583.00 267.00 L 578.52 267.00 C571.85,267.00 571.23,265.45 571.06,248.35 C570.86,229.30 570.91,229.17 577.35,228.80 L 582.50 228.50 L 582.81 224.75 L 583.12 221.00 L 577.56 221.00 L 572.00 221.00 L 572.00 213.00 L 572.00 205.00 L 567.61 205.00 C562.38,205.00 562.00,205.65 562.00,214.58 L 562.00 221.00 L 557.44 221.00 L 552.88 221.00 L 553.19 224.75 C553.49,228.37 553.64,228.51 557.65,228.80 L 561.79 229.10 L 562.23 248.80 C562.46,259.64 562.99,269.25 563.40,270.16 C564.67,272.98 570.13,274.95 576.75,274.98 L 583.00 275.00 L 583.00 271.00 ZM 601.43 273.43 C602.77,272.09 603.00,268.39 603.00,248.36 C603.00,234.08 602.59,224.11 601.96,222.93 C600.68,220.54 595.49,220.29 594.61,222.58 C594.27,223.45 594.00,235.13 594.00,248.53 C594.00,270.69 594.16,272.99 595.75,273.92 C598.22,275.36 599.62,275.24 601.43,273.43 ZM 687.77 256.06 C688.04,237.93 688.09,237.57 690.66,234.21 C694.85,228.70 702.88,226.48 709.48,228.99 C714.10,230.75 715.00,234.98 715.00,254.93 C715.00,271.70 715.13,273.00 716.93,273.96 C719.44,275.30 719.57,275.29 721.43,273.43 C722.75,272.11 722.99,268.82 722.96,252.68 C722.92,234.95 722.75,233.16 720.71,229.06 C717.84,223.30 714.69,221.11 708.18,220.33 C702.33,219.64 692.66,221.50 690.86,223.66 C689.21,225.66 688.06,225.30 686.98,222.44 C686.14,220.23 685.49,219.92 682.25,220.19 L 678.50 220.50 L 678.23 246.48 C678.09,260.77 678.19,273.06 678.47,273.79 C678.81,274.68 680.39,275.01 683.24,274.81 L 687.50 274.50 L 687.77 256.06 ZM 602.80 205.75 L 603.10 200.00 L 598.55 200.00 L 594.00 200.00 L 594.00 205.33 C594.00,208.27 594.32,210.99 594.71,211.38 C595.11,211.77 597.02,211.96 598.96,211.80 L 602.50 211.50 L 602.80 205.75 ZM 806.82 163.48 C812.09,161.07 812.20,161.06 812.72,163.02 C813.00,164.12 814.35,165.30 815.71,165.64 C818.12,166.25 829.76,165.57 830.56,164.78 C830.78,164.56 830.52,161.70 829.98,158.44 C829.45,155.17 829.01,143.50 829.00,132.50 C828.99,114.19 828.82,112.22 826.97,109.18 C823.71,103.83 817.54,101.66 804.33,101.19 C791.88,100.74 785.23,102.24 779.18,106.82 C775.34,109.73 771.74,116.18 772.19,119.33 C772.48,121.33 773.15,121.52 780.72,121.79 C788.82,122.08 788.95,122.04 789.59,119.50 C789.95,118.08 791.76,115.76 793.62,114.34 C796.55,112.10 797.75,111.81 802.46,112.20 C806.66,112.55 808.36,113.21 809.92,115.08 C812.44,118.11 812.53,121.13 810.17,124.04 C808.66,125.90 806.04,126.69 795.11,128.55 C777.02,131.65 771.76,135.16 770.40,145.08 C769.66,150.51 771.31,157.09 774.30,160.56 C775.52,161.98 778.99,164.03 782.01,165.10 C789.15,167.65 799.14,167.00 806.82,163.48 ZM 361.68 165.01 C365.16,165.00 365.97,164.62 366.50,162.75 C366.85,161.51 368.29,157.24 369.70,153.25 L 372.27 146.00 L 388.07 146.00 C397.39,146.00 404.13,146.41 404.49,146.99 C404.83,147.53 406.38,151.66 407.94,156.17 C410.12,162.45 411.34,164.59 413.14,165.28 C415.43,166.15 429.55,165.78 430.51,164.82 C430.77,164.56 428.97,159.43 426.51,153.42 C424.05,147.42 422.03,141.82 422.02,141.00 C422.00,140.18 421.18,138.15 420.18,136.50 C419.19,134.85 417.77,131.25 417.04,128.50 C416.32,125.75 412.44,115.18 408.44,105.00 C404.43,94.82 400.66,84.59 400.04,82.25 L 398.92 78.00 L 388.71 78.00 L 378.49 78.00 L 375.80 85.25 C374.32,89.24 370.79,98.57 367.95,106.00 C365.12,113.43 362.23,121.56 361.53,124.07 C360.84,126.59 358.66,132.44 356.68,137.07 C353.31,144.96 346.00,163.75 346.00,164.52 C346.00,165.26 350.69,165.79 354.00,165.42 C355.92,165.20 359.38,165.02 361.68,165.01 ZM 452.67 165.23 C453.46,164.72 453.94,158.77 454.17,146.49 C454.46,130.67 454.74,128.09 456.50,125.10 C459.75,119.59 463.20,117.65 470.55,117.18 L 477.08 116.76 L 476.79 108.63 C476.51,100.69 476.44,100.49 473.88,100.20 C470.40,99.79 460.24,103.43 457.41,106.09 C454.77,108.56 453.00,107.90 453.00,104.44 C453.00,102.04 452.85,102.00 444.50,102.00 L 436.00 102.00 L 436.00 133.45 L 436.00 164.90 L 441.75 165.26 C444.91,165.46 448.40,165.70 449.50,165.80 C450.60,165.89 452.02,165.64 452.67,165.23 ZM 502.42 165.39 C503.79,164.87 504.00,162.09 504.00,144.64 C504.00,127.47 504.26,123.98 505.75,121.00 C508.71,115.07 517.89,112.13 522.77,115.55 C527.10,118.58 527.48,120.58 528.00,143.00 L 528.50 164.50 L 534.46 164.81 C537.74,164.97 541.47,164.85 542.76,164.52 L 545.10 163.94 L 544.80 140.22 C544.52,117.89 544.36,116.20 542.18,111.37 C539.04,104.43 532.61,100.75 523.64,100.75 C517.73,100.75 508.91,103.00 506.29,105.18 C504.66,106.53 502.00,105.51 502.00,103.53 C502.00,102.28 500.52,102.00 494.00,102.00 L 486.00 102.00 L 486.00 133.43 L 486.00 164.86 L 488.25 165.29 C491.87,165.99 500.70,166.05 502.42,165.39 ZM 572.88 165.38 L 576.00 164.75 L 576.02 144.62 C576.04,126.98 576.28,123.98 577.95,120.29 C581.12,113.32 589.16,111.60 596.38,116.33 C599.62,118.46 600.00,121.38 600.00,144.51 C600.00,164.67 600.01,164.77 602.25,165.37 C605.21,166.16 610.96,166.16 614.95,165.36 L 618.15 164.72 L 617.83 140.61 C617.50,116.80 617.47,116.43 614.79,110.71 C612.46,105.75 611.41,104.63 607.45,102.88 C604.91,101.75 599.60,100.59 595.64,100.29 C589.08,99.79 587.95,100.00 582.97,102.62 C579.96,104.20 577.17,105.64 576.76,105.83 C576.35,106.01 575.57,105.00 575.03,103.58 C574.09,101.10 573.73,101.00 566.02,101.00 L 558.00 101.00 L 558.00 132.93 L 558.00 164.86 L 560.25 165.29 C563.94,166.01 569.54,166.04 572.88,165.38 ZM 647.73 164.81 C648.71,164.00 649.00,156.57 649.00,132.88 L 649.00 102.00 L 640.00 102.00 L 631.00 102.00 L 631.00 133.43 L 631.00 164.86 L 633.25 165.19 C638.61,165.99 646.57,165.77 647.73,164.81 ZM 677.75 165.37 C679.99,164.77 680.00,164.66 680.00,144.84 C680.00,126.84 680.19,124.54 682.02,120.97 C684.61,115.88 689.73,113.49 695.49,114.68 C701.92,116.01 702.45,118.01 702.83,142.49 C703.05,157.16 703.50,163.70 704.33,164.22 C706.01,165.29 715.22,165.15 717.00,164.02 C718.22,163.25 718.59,159.35 719.00,142.79 C719.47,123.85 719.65,122.29 721.72,119.38 C726.07,113.29 734.83,112.42 738.96,117.67 C740.88,120.11 741.00,121.63 741.00,142.50 L 741.00 164.73 L 748.12 165.24 C760.01,166.09 759.00,168.28 759.00,141.56 C759.00,109.28 757.52,105.24 744.27,101.39 C735.18,98.75 727.48,100.37 720.50,106.40 C716.88,109.53 716.80,109.54 714.40,106.89 C707.95,99.76 694.53,98.12 686.59,103.50 C681.61,106.88 679.76,107.00 679.02,104.00 C678.43,101.59 678.11,101.50 670.45,101.50 L 662.50 101.50 L 662.24 133.18 L 661.97 164.86 L 664.74 165.28 C669.29,165.97 675.35,166.01 677.75,165.37 ZM 648.50 85.00 L 648.50 78.50 L 639.75 78.21 L 631.00 77.92 L 631.00 85.00 L 631.00 92.08 L 639.75 91.79 L 648.50 91.50 L 648.50 85.00 ZM 433.50 267.80 C429.88,266.53 425.33,262.48 423.41,258.80 C422.55,257.16 422.00,253.09 422.00,248.41 C422.00,238.22 424.59,232.69 430.66,229.93 C445.00,223.39 456.79,234.52 454.55,252.46 C453.68,259.41 450.65,263.92 444.99,266.71 C440.03,269.15 437.95,269.35 433.50,267.80 ZM 632.39 266.10 C625.55,261.93 622.70,253.18 624.42,241.68 C625.45,234.82 631.00,229.00 637.52,227.95 C644.59,226.81 649.06,228.24 652.73,232.81 C660.41,242.37 659.51,257.86 650.86,264.75 C647.35,267.55 646.01,268.00 641.14,268.00 C637.37,267.99 634.47,267.36 632.39,266.10 ZM 794.02 154.89 C789.22,153.88 786.66,150.50 787.37,146.09 C788.19,141.05 789.82,139.98 799.64,137.99 C810.06,135.89 810.92,136.28 811.23,143.31 C811.41,147.39 811.02,148.44 808.34,151.13 C804.87,154.60 799.45,156.02 794.02,154.89 ZM 380.25 130.50 C378.83,128.90 378.57,122.89 379.84,121.45 C380.31,120.93 381.73,117.57 383.01,114.00 C385.74,106.34 386.64,105.00 389.04,105.00 C390.43,105.00 391.67,107.44 394.50,115.75 C396.52,121.66 398.39,127.05 398.65,127.71 C398.93,128.40 398.03,129.20 396.57,129.57 C395.16,129.93 394.00,130.62 394.00,131.11 C394.00,132.63 381.65,132.09 380.25,130.50 Z" fill="rgb(252,254,254)"/>
</g>
</svg>